<?xml version="1.0" encoding="UTF-8" standalone="no"?>
<!-- Created with Inkscape (http://www.inkscape.org/) -->

<svg
        xmlns:inkscape="http://www.inkscape.org/namespaces/inkscape"
        xmlns:sodipodi="http://sodipodi.sourceforge.net/DTD/sodipodi-0.dtd"
        version="1.1"
        id="svg1"
        width="480"
        height="480"
        viewBox="0 0 480 480"
        sodipodi:docname="favicon.svg"
        inkscape:version="1.4.2 (f4327f4, 2025-05-13)"
        inkscape:export-filename="favicon.png"
        inkscape:export-xdpi="96"
        inkscape:export-ydpi="96"
        xmlns="http://www.w3.org/2000/svg">
    <defs
            id="defs1"/>
    <sodipodi:namedview
            id="namedview1"
            pagecolor="#0f5398"
            bordercolor="#000000"
            borderopacity="0.25"
            inkscape:showpageshadow="false"
            inkscape:pageopacity="0.0"
            inkscape:pagecheckerboard="false"
            inkscape:deskcolor="#d1d1d1"
            showborder="false"
            borderlayer="false"
            inkscape:zoom="0.78808594"
            inkscape:cx="154.80545"
            inkscape:cy="347.04337"
            inkscape:window-width="1920"
            inkscape:window-height="1009"
            inkscape:window-x="-8"
            inkscape:window-y="-8"
            inkscape:window-maximized="1"
            inkscape:current-layer="svg1"
            inkscape:export-bgcolor="#0f5398ff"/>
    <g
            inkscape:groupmode="layer"
            inkscape:label="logo"
            id="g1"
            transform="translate(-351.03644,-150.9981)"
            sodipodi:insensitive="true"
            style="display:inline">
        <path
                d="m 439.7189,548.5468 c -2.59147,-2.40169 -2.64602,-2.71189 -2.64602,-15.04546 0,-12.03722 0.10837,-12.70156 2.45455,-15.04774 2.19928,-2.19929 3.29124,-2.45455 10.5,-2.45455 h 8.04545 V 383.81477 c 0,-131.80499 0.006,-132.19659 2.07852,-136.47792 1.14319,-2.36151 4.2958,-6.28718 7.0058,-8.7237 8.83308,-7.9417 5.10894,-7.6141 86.55631,-7.6141 70.21259,0 72.43999,0.0582 77.71473,2.03177 5.3763,2.01153 12.56535,8.41199 15.75882,14.03018 1.11629,1.96388 1.48306,13.02069 1.88582,56.85076 l 0.5,54.41271 6.37029,1.29902 c 10.68678,2.17924 18.3749,7.2372 23.75157,15.626 5.01236,7.8204 5.3777,11.77047 5.38372,58.20966 0.003,26.94783 0.39777,44.4522 1.05455,46.81723 1.38986,5.00486 6.18315,10.31783 10.63377,11.78666 4.98943,1.64666 13.57862,0.59021 17.4158,-2.1421 1.71784,-1.22322 3.96104,-4.06855 4.98487,-6.32296 1.74613,-3.84487 1.86287,-7.70218 1.88347,-62.2323 0.0213,-56.28507 -0.0385,-58.14917 -1.8783,-58.6303 -1.61965,-0.42355 -1.99741,-1.80668 -2.55817,-9.36663 -0.36186,-4.87833 -0.74424,-9.5447 -0.84974,-10.3697 -0.10551,-0.825 -2.0592,-2.4 -4.34154,-3.5 -6.86929,-3.31073 -8.35029,-5.18472 -8.35029,-10.56609 0,-4.05508 0.44141,-5.12755 2.9947,-7.276 l 2.99471,-2.51988 -0.64411,-10.52721 c -0.38291,-6.25809 -1.29321,-11.92389 -2.24471,-13.97127 -0.93493,-2.01171 -4.75816,-5.93293 -9.19298,-9.42858 -11.53731,-9.09404 -20.90761,-18.21335 -20.90761,-20.34758 0,-2.47916 5.70369,-15.05592 7.28318,-16.05957 2.3596,-1.49934 3.63957,-0.72257 12.88423,7.81899 5.13292,4.74255 13.13383,11.60505 17.77979,15.25 17.72948,13.90954 22.64821,20.22285 27.7573,35.62719 2.48001,7.47744 2.68062,9.45538 3.07128,30.28082 0.43729,23.31161 0.1452,25.21918 -3.86156,25.21918 -1.7645,0 -1.85278,2.52072 -2.12755,60.75 l -0.28667,60.75 -2.63517,5.62001 c -3.57189,7.61778 -8.91573,13.26648 -15.70429,16.60021 -5.14818,2.52817 -6.65619,2.77978 -16.66054,2.77978 -9.16382,0 -11.78049,-0.36071 -15.67567,-2.16089 -6.97763,-3.22476 -13.13607,-9.44041 -16.4389,-16.59163 l -2.88543,-6.24748 -0.5,-47.5 c -0.54807,-52.06685 -0.32148,-50.17399 -6.736,-56.2697 -2.64801,-2.5164 -7.79975,-4.7303 -11.0074,-4.7303 -0.99683,0 -1.2566,14.47053 -1.2566,70 v 70 h 8.5 c 12.64848,0 14.11979,2.28343 13.31581,20.66581 -0.39308,8.9874 -0.59458,9.74715 -3.17353,11.96547 l -2.75381,2.36872 H 553.66314 442.36493 Z m 128.57077,-63.53299 c 35.40442,-10.93531 46.5063,-56.09469 20.28321,-82.50649 -10.09797,-10.17065 -20.53359,-14.47511 -35.14466,-14.4964 -22.1937,-0.0323 -40.37936,13.62334 -47.13737,35.39562 -2.35106,7.57442 -2.0172,22.5069 0.67102,30.0126 3.03039,8.46104 6.4804,13.91707 12.62243,19.96175 5.51024,5.4229 15.13144,10.8709 22.07327,12.49899 7.15635,1.6784 19.71649,1.26994 26.6321,-0.86607 z M 544.94305,468.4967 c -10.41626,-3.34793 -19.37626,-12.2564 -21.96665,-21.84031 -1.67349,-6.19157 -0.66926,-18.31282 1.93695,-23.37954 4.75594,-9.24599 12.55689,-15.03703 23.1659,-17.19723 13.93234,-2.8369 29.17753,5.2763 35.23192,18.74976 2.96254,6.59285 2.99095,18.87416 0.0586,25.34534 -6.58396,14.5298 -24.15676,22.90856 -38.42676,18.32198 z m 70.25827,-115.06407 c 5.65184,-2.92268 5.87172,-4.63269 5.87001,-45.65146 -10e-4,-33.49634 -0.1791,-37.63611 -1.75,-40.76821 -0.96165,-1.91735 -2.87345,-4.04821 -4.24845,-4.73526 -3.9226,-1.96 -119.04695,-1.82285 -122.85497,0.14635 -5.01895,2.5954 -5.14503,3.72232 -5.14503,45.98719 0,38.65052 0.0363,39.36424 2.13812,42.03627 1.17596,1.495 3.08846,3.10216 4.25,3.57147 1.16153,0.46931 28.34673,0.88182 60.41154,0.91668 51.0478,0.0555 58.67645,-0.13146 61.32878,-1.50303 z"
                style="display:inline;fill:#ffffff"
                id="path1"
                inkscape:label="pompa"/>
    </g>
    <g
            inkscape:groupmode="layer"
            id="layer1"
            inkscape:label="sfondo"
            style="fill:#ff0000;fill-opacity:1"/>
</svg>
