<?xml version="1.0" encoding="UTF-8" standalone="no"?>
<!-- Created with Inkscape (http://www.inkscape.org/) -->

<svg
        xmlns:inkscape="http://www.inkscape.org/namespaces/inkscape"
        xmlns:sodipodi="http://sodipodi.sourceforge.net/DTD/sodipodi-0.dtd"
        version="1.1"
        id="svg1"
        width="1024"
        height="374"
        viewBox="0 0 1024 374"
        sodipodi:docname="logo-header.svg"
        inkscape:version="1.4.2 (f4327f4, 2025-05-13)"
        xmlns="http://www.w3.org/2000/svg">
    <defs
            id="defs1"/>
    <sodipodi:namedview
            id="namedview1"
            pagecolor="#000000"
            bordercolor="#000000"
            borderopacity="0.25"
            inkscape:showpageshadow="false"
            inkscape:pageopacity="0.0"
            inkscape:pagecheckerboard="true"
            inkscape:deskcolor="#d1d1d1"
            showborder="true"
            borderlayer="false"
            inkscape:zoom="0.78808594"
            inkscape:cx="468.22305"
            inkscape:cy="160.51549"
            inkscape:window-width="1920"
            inkscape:window-height="1009"
            inkscape:window-x="-8"
            inkscape:window-y="-8"
            inkscape:window-maximized="1"
            inkscape:current-layer="g1"
            inkscape:clip-to-page="false"/>
    <g
            inkscape:groupmode="layer"
            inkscape:label="logo"
            id="g1"
            transform="translate(-14,-309.43021)">
        <path
                style="display:inline;fill:#0f5398;stroke-width:0.756867;fill-opacity:1"
                d="m 955.26442,612.04434 c -5.48334,-1.82023 -9.23245,-4.16853 -12.39964,-7.76665 -5.59263,-6.35356 -5.68187,-7.01185 -5.9664,-44.00858 l -0.25175,-32.73448 h 8.36281 8.36281 v 29.93951 c 0,19.23281 0.29719,31.11976 0.83105,33.23989 1.31587,5.22582 3.5153,6.75329 10.21099,7.09141 7.3,0.36863 9.89774,-0.68083 11.74323,-4.74417 1.29026,-2.84083 1.40254,-5.55748 1.41784,-34.30589 l 0.0167,-31.22075 H 986.296 995 l -0.01,28.95015 c -0.01,29.90188 -0.4593,36.07096 -3.1025,42.21523 -1.9395,4.50849 -7.5595,10.03133 -12.4076,12.19313 -4.71377,2.10193 -19.27129,2.79386 -24.21969,1.1512 z m -567.2716,-42.44868 v -42.06103 h 17.37068 c 22.02941,0 27.38603,1.06486 32.85194,6.53076 3.43743,3.43744 4.51358,6.26703 4.87019,12.80551 0.4275,7.8381 -1.39925,12.50415 -6.79437,17.35482 l -3.71979,3.34442 2.11962,1.10993 c 10.46982,5.4825 13.98478,22.84618 6.79795,33.58147 -1.84802,2.76047 -3.62088,4.21373 -7.62656,6.25169 l -5.21883,2.65517 -20.32542,0.24414 -20.32541,0.24414 z m 34.44517,27.23782 c 7.3641,-3.07692 7.60642,-15.78815 0.3707,-19.44541 -1.91887,-0.96988 -4.69478,-1.37727 -10.07097,-1.47799 l -7.42193,-0.13904 -0.14674,11.07618 -0.14673,11.07618 7.40376,-8e-5 c 4.73121,-6e-5 8.34523,-0.39346 10.01191,-1.08984 z m 0.15003,-36.46539 c 2.76938,-2.05533 4.20106,-6.41106 3.54508,-10.78548 -0.91629,-6.11023 -5.07339,-8.41231 -15.20517,-8.42016 l -5.44739,-0.005 -0.22911,10.67619 -0.22911,10.67619 7.72643,-0.28723 c 6.34037,-0.2357 8.10546,-0.56853 9.83927,-1.85529 z m 35.7934,9.17264 v -42.0061 h 23.46287 23.46287 v 7.19023 7.19023 h -14.7589 -14.7589 v 9.83927 9.83927 h 12.86673 12.86674 v 7.48993 7.48993 l -12.86674,-0.14512 -12.86673,-0.14512 v 10.44155 10.44156 h 15.13733 15.13734 v 7.19024 7.19023 h -23.84131 -23.8413 z m 59.41404,0 v -42.0061 l 8.32553,0.002 8.32554,0.002 13.6236,26.47563 13.6236,26.47563 0.1989,-26.47794 0.1989,-26.47793 8.12663,1.7e-4 8.12664,1.7e-4 v 42.00598 42.00598 l -8.70397,-0.007 -8.70397,-0.007 -8.13719,-16.07667 c -4.47546,-8.84207 -10.51296,-20.67454 -13.41665,-26.29427 l -5.27946,-10.2177 0.17148,26.30145 0.17149,26.30145 -8.32554,-3.3e-4 -8.32553,-3.4e-4 z m 73.7945,36.836 v -5.17011 l 12.2055,-21.88788 c 6.71302,-12.03833 14.18166,-25.37893 16.59698,-29.64576 l 4.39146,-7.75789 h -15.8401 -15.8401 v -7.19023 -7.19023 h 25.73347 25.73346 v 5.70315 5.70316 l -15.70498,28.49487 c -8.63774,15.67216 -15.81852,28.77289 -15.95727,29.1127 -0.13877,0.33982 7.18392,0.61756 16.27263,0.61719 l 16.52492,-6.6e-4 v 7.18954 7.18955 l -27.05798,0.002 -27.05799,0.002 z m 67.36114,-36.836 v -42.0061 h 8.32553 8.32554 v 42.0061 42.0061 h -8.32554 -8.32553 z m 33.12549,-0.0245 0.20179,-42.03092 8.40761,0.21388 8.40762,0.21389 13.21383,25.73347 c 7.2676,14.15341 13.44077,25.97227 13.71815,26.26413 0.27739,0.29186 0.40663,-11.37335 0.28719,-25.92269 l -0.21716,-26.45334 h 8.35347 8.35348 v 42.03012 42.03012 l -8.87375,-0.21323 -8.87377,-0.21324 -5.98332,-11.73144 c -3.29084,-6.45228 -9.2599,-18.0794 -13.2646,-25.83803 l -7.28126,-14.10658 0.22617,26.02724 0.22616,26.02724 -8.5517,1.5e-4 -8.5517,1.5e-4 z m 72.9345,36.56691 c 0.83056,-3.03097 6.00825,-21.85918 11.50597,-41.84046 l 9.99585,-36.3296 10.77047,-0.21 c 5.92375,-0.1155 10.77046,-0.0189 10.77046,0.21457 0,0.23351 4.9168,18.20899 10.92621,39.9455 6.00943,21.73651 11.1552,40.45756 11.43505,41.60232 l 0.50885,2.08138 h -8.75685 -8.75684 l -0.7473,-2.83825 c -0.41102,-1.56104 -1.40321,-5.39267 -2.20486,-8.51475 l -1.45755,-5.6765 h -11.97152 -11.97152 l -1.94567,8.32553 -1.94567,8.32554 -8.8326,0.21279 -8.8326,0.21279 z m 40.27415,-27.64921 c -0.28977,-1.14476 -2.26215,-9.00843 -4.38307,-17.47482 l -3.85622,-15.39345 -4.01021,16.15031 c -2.20561,8.88267 -4.17946,16.74635 -4.38632,17.47483 -0.34272,1.20688 0.40277,1.32452 8.39327,1.32452 h 8.76939 z m 40.16786,30.64548 c -2.65468,-2.43284 -2.88133,-2.96372 -2.91995,-6.83935 -0.0501,-5.03113 1.74877,-7.94592 5.87263,-9.51548 3.61175,-1.37463 7.52658,-0.57926 10.58082,2.14969 2.2636,2.02253 2.42634,2.50093 2.42634,7.13246 0,4.38699 -0.23823,5.20275 -2.04786,7.01238 -1.6514,1.6514 -2.91772,2.11079 -6.54089,2.37286 -4.27368,0.30913 -4.63351,0.19624 -7.37109,-2.31256 z m 31.47561,-39.53866 v -42.0061 h 23.46287 23.46287 v 7.19023 7.19023 l -14.94812,-0.002 -14.94812,-0.002 0.23129,9.84059 0.2313,9.84059 h 12.85207 12.85206 l -0.21663,7.26189 -0.21662,7.26226 -12.67752,-0.10359 -12.67751,-0.10359 v 10.62807 10.62807 h 15.13733 15.13733 v 7.19024 7.19023 h -23.8413 -23.8413 z M 475.03249,433.6275 v -53.03632 l 24.40895,0.28062 c 21.96864,0.25258 24.77109,0.42681 28.03118,1.7427 7.82236,3.15739 14.18453,10.09291 16.64495,18.14495 0.55541,1.81766 0.91178,7.41301 0.89177,14.00204 -0.0292,9.61081 -0.24869,11.5184 -1.76648,15.351 -3.35859,8.48084 -9.25234,14.23003 -17.63162,17.19916 -3.92245,1.38989 -6.94391,1.7645 -16.70896,2.07163 l -11.92065,0.37493 v 18.45281 18.4528 h -10.97457 -10.97457 z m 39.29405,-2.95374 c 12.17181,-3.49083 13.16647,-26.53245 1.33826,-31.00145 -1.17185,-0.44276 -5.85496,-0.80502 -10.40691,-0.80502 h -8.27626 v 16.27263 16.27264 h 7.38444 c 4.06145,0 8.54366,-0.33246 9.96047,-0.7388 z m 47.56652,2.95501 -0.19933,-53.03507 24.21973,0.26696 c 22.89673,0.25237 24.44911,0.35855 28.41872,1.94369 8.285,3.30837 13.46781,8.71095 16.39008,17.0851 1.87191,5.3642 1.89445,19.57936 0.0406,25.56751 -1.88951,6.10313 -5.62346,11.14995 -10.88335,14.70997 l -4.54752,3.07787 3.17216,6.7614 c 1.74468,3.71876 6.27985,13.3688 10.07815,21.44452 3.79827,8.07573 6.90596,14.80238 6.90596,14.94812 0,0.14574 -5.41085,0.26498 -12.02411,0.26498 h -12.02412 l -6.98483,-16.46185 c -3.84166,-9.05401 -7.63206,-17.9945 -8.4231,-19.86775 l -1.43825,-3.4059 h -5.6647 -5.66469 v 19.86775 19.86775 H 572.67842 562.0924 Z m 39.66312,-5.26629 c 9.90717,-2.75171 12.29328,-21.06814 3.55637,-27.29947 -2.30846,-1.64643 -3.45531,-1.84223 -12.19807,-2.08251 l -9.65005,-0.26523 v 15.21335 15.21334 l 7.75788,-0.005 c 4.26684,-0.002 9.00708,-0.35117 10.53387,-0.77525 z m 49.06939,5.32068 v -52.98067 h 29.89623 29.89624 l 5.6e-4,9.27161 5.6e-4,9.27162 -18.92222,-0.21455 -18.92224,-0.21456 v 12.51365 12.51363 h 16.27264 16.27263 v 9.0824 9.0824 H 688.84734 672.5747 v 13.24517 13.24516 h 19.3001 19.3001 v 9.0824 9.0824 h -30.27467 -30.27466 z m 71.90233,46.57448 v -6.4062 l 20.73612,-37.30286 20.73611,-37.30286 -19.22238,-0.20199 -19.22238,-0.20199 3.6e-4,-9.25885 3.7e-4,-9.25884 h 32.1667 32.1667 l -2.2e-4,7.25617 -2.4e-4,7.25616 -20.26207,36.64211 -20.26206,36.6421 20.64049,0.20119 20.64051,0.20119 v 9.07043 9.07042 h -34.059 -34.05901 z m 79.47101,0.35494 v -6.05123 l 20.39526,-36.52252 c 11.21739,-20.08738 20.62006,-37.11854 20.89481,-37.84703 0.46767,-1.23999 -0.73874,-1.32451 -18.90482,-1.32451 h -19.40438 l 0.21251,-9.27162 0.21252,-9.27162 h 32.16683 32.16684 l 0.21747,6.99008 0.21748,6.99007 -9.78366,17.60809 c -5.38102,9.68445 -14.58815,26.29314 -20.46028,36.9082 l -10.67662,19.3001 20.81046,0.20119 20.81045,0.20119 v 9.07043 9.07042 h -34.43744 -34.43743 z m 84.76907,-47.32864 v -53.37988 l 10.78535,0.20999 10.78535,0.21 0.19433,53.16989 0.19433,53.16988 h -10.97969 -10.97967 z"
                id="path2"
                sodipodi:nodetypes="csscccsssssccccssccccsssscsssccccssscccsscsccccscccccccccccccccccccccccccccccccccccccccccssccccccccsscccccccccssscccccccccccccccccccssscccccccssccccccsscsssscccsscccccccssscssscssssssssscccccccccccccccccccccccccccsssssssccccccssscccssccssssscsssscsscccccccccssccccccccccccccccccccccccccccccccccccccccccccccccccccccssscccccccssccccccccccccccccc"
                inkscape:label="scritta"/>
        <path
                d="M 59.64602,653.97891 C 57.05455,651.57722 57,651.26702 57,638.93345 c 0,-12.03722 0.10837,-12.70156 2.45455,-15.04774 2.19928,-2.19929 3.29124,-2.45455 10.5,-2.45455 H 78 V 489.24688 c 0,-131.80499 0.006,-132.19659 2.07852,-136.47792 1.14319,-2.36151 4.2958,-6.28718 7.0058,-8.7237 8.83308,-7.9417 5.10894,-7.6141 86.55631,-7.6141 70.21259,0 72.43999,0.0582 77.71473,2.03177 5.3763,2.01153 12.56535,8.41199 15.75882,14.03018 1.11629,1.96388 1.48306,13.02069 1.88582,56.85076 l 0.5,54.41271 6.37029,1.29902 c 10.68678,2.17924 18.3749,7.2372 23.75157,15.626 5.01236,7.8204 5.3777,11.77047 5.38372,58.20966 0.003,26.94783 0.39777,44.4522 1.05455,46.81723 1.38986,5.00486 6.18315,10.31783 10.63377,11.78666 4.98943,1.64666 13.57862,0.59021 17.4158,-2.1421 1.71784,-1.22322 3.96104,-4.06855 4.98487,-6.32296 1.74613,-3.84487 1.86287,-7.70218 1.88347,-62.2323 0.0213,-56.28507 -0.0385,-58.14917 -1.8783,-58.6303 -1.61965,-0.42355 -1.99741,-1.80668 -2.55817,-9.36663 -0.36186,-4.87833 -0.74424,-9.5447 -0.84974,-10.3697 -0.10551,-0.825 -2.0592,-2.4 -4.34154,-3.5 C 324.481,441.62043 323,439.74644 323,434.36507 c 0,-4.05508 0.44141,-5.12755 2.9947,-7.276 l 2.99471,-2.51988 -0.64411,-10.52721 c -0.38291,-6.25809 -1.29321,-11.92389 -2.24471,-13.97127 -0.93493,-2.01171 -4.75816,-5.93293 -9.19298,-9.42858 C 305.3703,381.54809 296,372.42878 296,370.29455 c 0,-2.47916 5.70369,-15.05592 7.28318,-16.05957 2.3596,-1.49934 3.63957,-0.72257 12.88423,7.81899 5.13292,4.74255 13.13383,11.60505 17.77979,15.25 17.72948,13.90954 22.64821,20.22285 27.7573,35.62719 2.48001,7.47744 2.68062,9.45538 3.07128,30.28082 0.43729,23.31161 0.1452,25.21918 -3.86156,25.21918 -1.7645,0 -1.85278,2.52072 -2.12755,60.75 l -0.28667,60.75 -2.63517,5.62001 c -3.57189,7.61778 -8.91573,13.26648 -15.70429,16.60021 -5.14818,2.52817 -6.65619,2.77978 -16.66054,2.77978 -9.16382,0 -11.78049,-0.36071 -15.67567,-2.16089 -6.97763,-3.22476 -13.13607,-9.44041 -16.4389,-16.59163 l -2.88543,-6.24748 -0.5,-47.5 c -0.54807,-52.06685 -0.32148,-50.17399 -6.736,-56.2697 -2.64801,-2.5164 -7.79975,-4.7303 -11.0074,-4.7303 -0.99683,0 -1.2566,14.47053 -1.2566,70 v 70 h 8.5 c 12.64848,0 14.11979,2.28343 13.31581,20.66581 -0.39308,8.9874 -0.59458,9.74715 -3.17353,11.96547 l -2.75381,2.36872 H 173.59026 62.29205 Z m 128.57077,-63.53299 c 35.40442,-10.93531 46.5063,-56.09469 20.28321,-82.50649 -10.09797,-10.17065 -20.53359,-14.47511 -35.14466,-14.4964 -22.1937,-0.0323 -40.37936,13.62334 -47.13737,35.39562 -2.35106,7.57442 -2.0172,22.5069 0.67102,30.0126 3.03039,8.46104 6.4804,13.91707 12.62243,19.96175 5.51024,5.4229 15.13144,10.8709 22.07327,12.49899 7.15635,1.6784 19.71649,1.26994 26.6321,-0.86607 z m -23.34662,-16.51711 c -10.41626,-3.34793 -19.37626,-12.2564 -21.96665,-21.84031 -1.67349,-6.19157 -0.66926,-18.31282 1.93695,-23.37954 4.75594,-9.24599 12.55689,-15.03703 23.1659,-17.19723 13.93234,-2.8369 29.17753,5.2763 35.23192,18.74976 2.96254,6.59285 2.99095,18.87416 0.0586,25.34534 -6.58396,14.5298 -24.15676,22.90856 -38.42676,18.32198 z m 70.25827,-115.06407 c 5.65184,-2.92268 5.87172,-4.63269 5.87001,-45.65146 -0.001,-33.49634 -0.1791,-37.63611 -1.75,-40.76821 -0.96165,-1.91735 -2.87345,-4.04821 -4.24845,-4.73526 -3.9226,-1.96 -119.04695,-1.82285 -122.85497,0.14635 -5.01895,2.5954 -5.14503,3.72232 -5.14503,45.98719 0,38.65052 0.0363,39.36424 2.13812,42.03627 1.17596,1.495 3.08846,3.10216 4.25,3.57147 1.16153,0.46931 28.34673,0.88182 60.41154,0.91668 51.0478,0.0555 58.67645,-0.13146 61.32878,-1.50303 z"
                style="display:inline;fill:#0f5398;fill-opacity:1"
                id="path1"
                inkscape:label="pompa"/>
    </g>
</svg>
