<?xml version="1.0" encoding="UTF-8" standalone="no"?>
<!-- Created with Inkscape (http://www.inkscape.org/) -->

<svg
        xmlns:inkscape="http://www.inkscape.org/namespaces/inkscape"
        xmlns:sodipodi="http://sodipodi.sourceforge.net/DTD/sodipodi-0.dtd"
        version="1.1"
        id="svg1"
        width="1024"
        height="1024"
        viewBox="0 0 1024 1024"
        sodipodi:docname="logo.svg"
        inkscape:version="1.4.2 (f4327f4, 2025-05-13)"
        xmlns="http://www.w3.org/2000/svg">
    <defs
            id="defs1"/>
    <sodipodi:namedview
            id="namedview1"
            pagecolor="#000000"
            bordercolor="#000000"
            borderopacity="0.25"
            inkscape:showpageshadow="false"
            inkscape:pageopacity="0.0"
            inkscape:pagecheckerboard="true"
            inkscape:deskcolor="#d1d1d1"
            showborder="false"
            borderlayer="false"
            inkscape:zoom="0.78808594"
            inkscape:cx="512"
            inkscape:cy="512"
            inkscape:window-width="1920"
            inkscape:window-height="1009"
            inkscape:window-x="-8"
            inkscape:window-y="-8"
            inkscape:window-maximized="1"
            inkscape:current-layer="g1"/>
    <g
            inkscape:groupmode="layer"
            inkscape:label="logo"
            id="g1"
            transform="translate(7,15.569789)">
        <path
                style="display:inline;fill:#000000"
                d="m 853.5,840.65733 c -7.24478,-2.40496 -12.19825,-5.50762 -16.38285,-10.26158 -7.38919,-8.39456 -7.5071,-9.26432 -7.88303,-58.14575 L 828.9015,729 H 839.95075 851 v 39.55718 c 0,25.41109 0.39266,41.11657 1.09801,43.91776 1.73858,6.90454 4.64455,8.9227 13.49114,9.36943 9.64503,0.48705 13.07726,-0.89954 15.51559,-6.26817 1.70473,-3.75341 1.85308,-7.34274 1.8733,-45.3262 L 883,729 h 11.5 11.5 l -0.008,38.25 c -0.008,39.50746 -0.60683,47.65827 -4.09911,55.77631 -2.56254,5.95678 -9.98785,13.25376 -16.39334,16.11001 -6.22806,2.77714 -25.462,3.69135 -32,1.52101 z M 104,784.57257 V 729 h 22.95078 c 29.10606,0 36.18343,1.40694 43.40518,8.62868 4.54166,4.54167 5.96351,8.28023 6.43468,16.91911 0.56483,10.35598 -1.84874,16.52094 -8.97697,22.92983 l -4.91473,4.41876 2.80053,1.46649 c 13.83311,7.24368 18.4772,30.18521 8.9817,44.36906 -2.44168,3.64724 -4.78405,5.56734 -10.07649,8.25996 L 157.70936,839.5 130.85468,839.82257 104,840.14514 Z m 45.51022,35.98761 c 9.72972,-4.06534 10.04988,-20.85988 0.48978,-25.69199 -2.53528,-1.28144 -6.20291,-1.81969 -13.30613,-1.95277 l -9.80613,-0.18371 -0.19387,14.63426 -0.19387,14.63426 9.78212,-1.1e-4 c 6.25104,-8e-5 11.02602,-0.51986 13.2281,-1.43994 z m 0.19822,-48.17941 c 3.65901,-2.71558 5.5506,-8.47053 4.68389,-14.25017 -1.21063,-8.07306 -6.70314,-11.11465 -20.08962,-11.12502 l -7.19729,-0.006 -0.30271,14.10577 -0.30271,14.10577 10.20844,-0.37949 c 8.37713,-0.31142 10.70923,-0.75116 13,-2.45128 z M 197,784.5 V 729 h 31 31 v 9.5 9.5 H 239.5 220 v 13 13 h 17 17 v 9.89597 9.89597 l -17,-0.19174 -17,-0.19174 V 807.20423 821 h 20 20 v 9.5 9.5 H 228.5 197 Z m 78.5,0 V 729 l 11,0.003 11,0.003 18,34.98057 18,34.98057 0.26279,-34.98362 0.2628,-34.98361 10.7372,2.3e-4 10.73721,2.2e-4 v 55.49984 55.49984 l -11.5,-0.009 -11.5,-0.009 -10.75116,-21.24108 C 315.8357,807.05849 307.85874,791.425 304.02227,784 l -6.97541,-13.5 0.22657,34.75045 0.22657,34.75044 -11,-4.4e-4 -11,-4.5e-4 z m 97.5,48.66907 v -6.83093 l 16.12635,-28.91907 C 397.99584,781.51358 407.86368,763.8875 411.05488,758.25 L 416.85705,748 H 395.92852 375 v -9.5 -9.5 h 34 34 v 7.53522 7.53522 l -20.75,37.64846 c -11.4125,20.70664 -20.9,38.0158 -21.08333,38.46477 -0.18334,0.44898 9.49166,0.81594 21.5,0.81545 L 444.5,820.99825 v 9.49909 9.49909 l -35.75,0.002 L 373,840 Z M 462,784.5 V 729 h 11 11 v 55.5 55.5 h -11 -11 z m 43.76661,-0.0324 0.26661,-55.53279 11.10845,0.28259 11.10845,0.2826 17.45859,34 c 9.60222,18.7 17.75844,34.31551 18.12493,34.70113 0.3665,0.38562 0.53725,-15.02688 0.37944,-34.25 L 563.92617,729 H 574.96308 586 v 55.53174 55.53173 L 574.27567,839.78174 562.55133,839.5 554.64594,824 c -4.34797,-8.525 -12.23452,-23.88717 -17.52567,-34.13815 L 527.5,771.22371 l 0.29882,34.38814 0.29882,34.38815 -11.29882,2e-4 -11.29882,1.9e-4 z m 96.36373,48.31355 C 603.22771,828.77652 610.06866,803.9 617.33245,777.5 l 13.20688,-48 14.23034,-0.27746 c 7.82668,-0.1526 14.23033,-0.025 14.23033,0.2835 0,0.30852 6.49625,24.05838 14.43611,52.77746 7.93987,28.71907 14.73865,53.454 15.10841,54.9665 l 0.6723,2.75 h -11.56987 -11.56986 l -0.98736,-3.75 c -0.54305,-2.0625 -1.85396,-7.125 -2.91313,-11.25 l -1.92577,-7.5 H 644.43362 628.6164 l -2.57069,11 -2.57069,11 -11.66995,0.28115 -11.66996,0.28115 z M 655.34202,796.25 c -0.38285,-1.5125 -2.98883,-11.90227 -5.79107,-23.08838 l -5.09498,-20.33838 -5.29843,21.33838 c -2.91414,11.73611 -5.52206,22.12588 -5.79537,23.08838 -0.45281,1.59457 0.53215,1.75 11.08949,1.75 h 11.58644 z m 53.07125,40.48992 c -3.50746,-3.21435 -3.80692,-3.91577 -3.85795,-9.0364 -0.0662,-6.64731 2.31055,-10.49844 7.75914,-12.57219 4.77198,-1.81622 9.94439,-0.76535 13.97976,2.84025 2.99076,2.67224 3.20578,3.30432 3.20578,9.42366 0,5.79625 -0.31476,6.87407 -2.70571,9.26502 -2.18189,2.18188 -3.855,2.78885 -8.64206,3.13511 -5.64655,0.40843 -6.12197,0.25928 -9.73896,-3.05545 z M 750,784.5 V 729 h 31 31 v 9.5 9.5 l -19.75,-0.002 -19.75,-0.002 0.30559,13.00175 0.3056,13.00175 h 16.98062 16.98061 l -0.28621,9.59467 L 806.5,793.18934 789.75,793.05247 773,792.9156 V 806.9578 821 h 20 20 v 9.5 9.5 H 781.5 750 Z M 219,604.92647 v -70.07353 l 32.25,0.37077 c 29.02577,0.33371 32.72847,0.56391 37.03582,2.30251 10.33518,4.17166 18.74112,13.33512 21.99192,23.97378 0.73383,2.40156 1.20467,9.79433 1.17824,18.5 -0.0386,12.69816 -0.32858,15.21854 -2.33394,20.28231 -4.43749,11.20519 -12.22453,18.80123 -23.29555,22.72416 -5.18248,1.83637 -9.17454,2.33132 -22.07649,2.73711 L 248,626.23895 V 650.61948 675 H 233.5 219 Z m 51.91673,-3.90259 c 16.08185,-4.61221 17.39603,-35.05565 1.76817,-40.96026 C 271.1366,559.47863 264.9491,559 258.9349,559 H 248 v 21.5 21.5 h 9.7566 c 5.36613,0 11.28819,-0.43925 13.16013,-0.97612 z m 62.84664,3.90426 -0.26337,-70.07187 32,0.35271 c 30.25199,0.33344 32.30305,0.47373 37.54785,2.56808 10.94645,4.37114 17.79416,11.50922 21.65517,22.57346 2.47324,7.08738 2.50302,25.86897 0.0536,33.78073 -2.49649,8.06368 -7.42991,14.73172 -14.37947,19.43535 l -6.00835,4.0666 4.19117,8.9334 c 2.30514,4.91337 8.29717,17.66335 13.31562,28.33329 C 426.894,665.56984 431,674.45734 431,674.64989 431,674.84245 423.85098,675 415.1133,675 h -15.88671 l -9.22861,-21.75 C 384.92224,641.2875 379.91423,629.475 378.86908,627 l -1.90027,-4.5 H 369.4844 362 V 648.75 675 h -13.98663 -13.98663 z m 52.40436,-6.95801 c 13.08971,-3.63566 16.24233,-27.836 4.6988,-36.06906 -3.05001,-2.17532 -4.56528,-2.43402 -16.11653,-2.75149 L 362,558.79915 V 578.89958 599 l 10.25,-0.006 c 5.6375,-0.003 11.90048,-0.46399 13.91773,-1.02429 z M 451,605 v -70 h 39.5 39.5 l 7.5e-4,12.25 7.4e-4,12.25 -25.00074,-0.28347 L 480,558.93305 V 575.46653 592 h 21.5 21.5 v 12 12 H 501.5 480 v 17.5 17.5 h 25.5 25.5 v 12 12 h -40 -40 z m 95,61.53591 v -8.4641 L 573.39731,608.78591 600.79463,559.5 575.39731,559.23312 550,558.96624 l 4.8e-4,-12.23312 4.8e-4,-12.23312 h 42.49983 42.49982 l -3e-4,9.58711 L 635,553.67422 608.22901,602.08711 581.45803,650.5 608.72901,650.76582 636,651.03164 V 663.01582 675 h -45 -45 z m 105,0.46897 v -7.99511 l 26.94697,-48.25489 C 692.7678,584.2147 705.19095,561.7125 705.55396,560.75 706.17186,559.11168 704.5779,559 680.57621,559 H 654.93844 L 655.21922,546.75 655.5,534.5 h 42.5 42.5 l 0.28733,9.23554 0.28734,9.23554 -12.92653,23.26446 C 721.03854,589.03099 708.87375,610.975 701.11527,625 l -14.10634,25.5 27.49554,0.26582 L 742,651.03164 V 663.01582 675 H 696.5 651 Z m 112,-62.53234 v -70.52745 l 14.25,0.27745 14.25,0.27746 0.25675,70.25 0.25676,70.25 H 777.50675 763 Z"
                id="path2"
                sodipodi:nodetypes="csscccsssssccccssccccsssscsssccccssscccsscsccccscccccccccccccccccccccccccccccccccccccccccssccccccccsscccccccccssscccccccccccccccccccssscccccccssccccccsscsssscccsscccccccssscssscssssssssscccccccccccccccccccccccccccsssssssccccccssscccssccssssscsssscsscccccccccssccccccccccccccccccccccccccccccccccccccccccccccccccccccssscccccccssccccccccccccccccc"
                inkscape:label="scritta"/>
        <path
                d="m 353.68246,468.54775 c -2.59147,-2.40169 -2.64602,-2.71189 -2.64602,-15.04546 0,-12.03722 0.10837,-12.70156 2.45455,-15.04774 2.19928,-2.19929 3.29124,-2.45455 10.5,-2.45455 h 8.04545 V 303.81572 c 0,-131.80499 0.006,-132.19659 2.07852,-136.47792 1.14319,-2.36151 4.2958,-6.28718 7.0058,-8.7237 8.83308,-7.9417 5.10894,-7.6141 86.55631,-7.6141 70.21259,0 72.43999,0.0582 77.71473,2.03177 5.3763,2.01153 12.56535,8.41199 15.75882,14.03018 1.11629,1.96388 1.48306,13.02069 1.88582,56.85076 l 0.5,54.41271 6.37029,1.29902 c 10.68678,2.17924 18.3749,7.2372 23.75157,15.626 5.01236,7.8204 5.3777,11.77047 5.38372,58.20966 0.003,26.94783 0.39777,44.4522 1.05455,46.81723 1.38986,5.00486 6.18315,10.31783 10.63377,11.78666 4.98943,1.64666 13.57862,0.59021 17.4158,-2.1421 1.71784,-1.22322 3.96104,-4.06855 4.98487,-6.32296 1.74613,-3.84487 1.86287,-7.70218 1.88347,-62.2323 0.0213,-56.28507 -0.0385,-58.14917 -1.8783,-58.6303 -1.61965,-0.42355 -1.99741,-1.80668 -2.55817,-9.36663 -0.36186,-4.87833 -0.74424,-9.5447 -0.84974,-10.3697 -0.10551,-0.825 -2.0592,-2.4 -4.34154,-3.5 -6.86929,-3.31073 -8.35029,-5.18472 -8.35029,-10.56609 0,-4.05508 0.44141,-5.12755 2.9947,-7.276 l 2.99471,-2.51988 -0.64411,-10.52721 c -0.38291,-6.25809 -1.29321,-11.92389 -2.24471,-13.97127 -0.93493,-2.01171 -4.75816,-5.93293 -9.19298,-9.42858 -11.53731,-9.09404 -20.90761,-18.21335 -20.90761,-20.34758 0,-2.47916 5.70369,-15.05592 7.28318,-16.05957 2.3596,-1.49934 3.63957,-0.72257 12.88423,7.81899 5.13292,4.74255 13.13383,11.60505 17.77979,15.25 17.72948,13.90954 22.64821,20.22285 27.7573,35.62719 2.48001,7.47744 2.68062,9.45538 3.07128,30.28082 0.43729,23.31161 0.1452,25.21918 -3.86156,25.21918 -1.7645,0 -1.85278,2.52072 -2.12755,60.75 l -0.28667,60.75 -2.63517,5.62001 c -3.57189,7.61778 -8.91573,13.26648 -15.70429,16.60021 -5.14818,2.52817 -6.65619,2.77978 -16.66054,2.77978 -9.16382,0 -11.78049,-0.36071 -15.67567,-2.16089 -6.97763,-3.22476 -13.13607,-9.44041 -16.4389,-16.59163 l -2.88543,-6.24748 -0.5,-47.5 c -0.54807,-52.06685 -0.32148,-50.17399 -6.736,-56.2697 -2.64801,-2.5164 -7.79975,-4.7303 -11.0074,-4.7303 -0.99683,0 -1.2566,14.47053 -1.2566,70 v 70 h 8.5 c 12.64848,0 14.11979,2.28343 13.31581,20.66581 -0.39308,8.9874 -0.59458,9.74715 -3.17353,11.96547 L 578.92491,471 H 467.6267 356.32849 Z m 128.57077,-63.53299 c 35.40442,-10.93531 46.5063,-56.09469 20.28321,-82.50649 -10.09797,-10.17065 -20.53359,-14.47511 -35.14466,-14.4964 -22.1937,-0.0323 -40.37936,13.62334 -47.13737,35.39562 -2.35106,7.57442 -2.0172,22.5069 0.67102,30.0126 3.03039,8.46104 6.4804,13.91707 12.62243,19.96175 5.51024,5.4229 15.13144,10.8709 22.07327,12.49899 7.15635,1.6784 19.71649,1.26994 26.6321,-0.86607 z m -23.34662,-16.51711 c -10.41626,-3.34793 -19.37626,-12.2564 -21.96665,-21.84031 -1.67349,-6.19157 -0.66926,-18.31282 1.93695,-23.37954 4.75594,-9.24599 12.55689,-15.03703 23.1659,-17.19723 13.93234,-2.8369 29.17753,5.2763 35.23192,18.74976 2.96254,6.59285 2.99095,18.87416 0.0586,25.34534 -6.58396,14.5298 -24.15676,22.90856 -38.42676,18.32198 z m 70.25827,-115.06407 c 5.65184,-2.92268 5.87172,-4.63269 5.87001,-45.65146 -10e-4,-33.49634 -0.1791,-37.63611 -1.75,-40.76821 -0.96165,-1.91735 -2.87345,-4.04821 -4.24845,-4.73526 -3.9226,-1.96 -119.04695,-1.82285 -122.85497,0.14635 -5.01895,2.5954 -5.14503,3.72232 -5.14503,45.98719 0,38.65052 0.0363,39.36424 2.13812,42.03627 1.17596,1.495 3.08846,3.10216 4.25,3.57147 1.16153,0.46931 28.34673,0.88182 60.41154,0.91668 51.0478,0.0555 58.67645,-0.13146 61.32878,-1.50303 z"
                style="display:inline;fill:#000000"
                id="path1"
                inkscape:label="pompa"/>
    </g>
</svg>
